<?xml version="1.0" encoding="UTF-8" standalone="no"?>
<!DOCTYPE svg PUBLIC "-//W3C//DTD SVG 1.1//EN"
 "http://www.w3.org/Graphics/SVG/1.1/DTD/svg11.dtd">
<!-- Generated by graphviz version 2.30.1 (20180828.1746)
 -->
<!-- Title: %3 Pages: 1 -->
<svg width="2575pt" height="620pt"
 viewBox="0.00 0.00 2575.00 620.00" xmlns="http://www.w3.org/2000/svg" xmlns:xlink="http://www.w3.org/1999/xlink">
<g id="graph0" class="graph" transform="scale(1 1) rotate(0) translate(4 616)">
<title>%3</title>
<polygon fill="white" stroke="white" points="-4,5 -4,-616 2572,-616 2572,5 -4,5"/>
<!-- [root] module.backend.aws_instance.instance (expand) -->
<g id="node1" class="node"><title>[root] module.backend.aws_instance.instance (expand)</title>
<polygon fill="none" stroke="black" points="1016.25,-324 787.75,-324 787.75,-288 1016.25,-288 1016.25,-324"/>
<text text-anchor="middle" x="902" y="-302.3" font-family="Times,serif" font-size="14.00">module.backend.aws_instance.instance</text>
</g>
<!-- [root] module.backend.aws_key_pair.bubba (expand) -->
<g id="node2" class="node"><title>[root] module.backend.aws_key_pair.bubba (expand)</title>
<polygon fill="none" stroke="black" points="218.25,-252 -0.25,-252 -0.25,-216 218.25,-216 218.25,-252"/>
<text text-anchor="middle" x="109" y="-230.3" font-family="Times,serif" font-size="14.00">module.backend.aws_key_pair.bubba</text>
</g>
<!-- [root] module.backend.aws_instance.instance (expand)&#45;&gt;[root] module.backend.aws_key_pair.bubba (expand) -->
<g id="edge6" class="edge"><title>[root] module.backend.aws_instance.instance (expand)&#45;&gt;[root] module.backend.aws_key_pair.bubba (expand)</title>
<path fill="none" stroke="black" d="M787.605,-298.223C655.518,-289.893 431.502,-274.215 228.506,-252.013"/>
<polygon fill="black" stroke="black" points="228.873,-248.532 218.55,-250.917 228.107,-255.49 228.873,-248.532"/>
</g>
<!-- [root] module.backend.aws_security_group.nginx (expand) -->
<g id="node3" class="node"><title>[root] module.backend.aws_security_group.nginx (expand)</title>
<polygon fill="none" stroke="black" points="489,-252 237,-252 237,-216 489,-216 489,-252"/>
<text text-anchor="middle" x="363" y="-230.3" font-family="Times,serif" font-size="14.00">module.backend.aws_security_group.nginx</text>
</g>
<!-- [root] module.backend.aws_instance.instance (expand)&#45;&gt;[root] module.backend.aws_security_group.nginx (expand) -->
<g id="edge7" class="edge"><title>[root] module.backend.aws_instance.instance (expand)&#45;&gt;[root] module.backend.aws_security_group.nginx (expand)</title>
<path fill="none" stroke="black" d="M787.692,-290.155C703.484,-279.219 588.613,-264.3 499.57,-252.736"/>
<polygon fill="black" stroke="black" points="499.76,-249.232 489.393,-251.415 498.859,-256.173 499.76,-249.232"/>
</g>
<!-- [root] module.backend.data.aws_ami.ubuntu (expand) -->
<g id="node4" class="node"><title>[root] module.backend.data.aws_ami.ubuntu (expand)</title>
<polygon fill="none" stroke="black" points="732.25,-252 507.75,-252 507.75,-216 732.25,-216 732.25,-252"/>
<text text-anchor="middle" x="620" y="-230.3" font-family="Times,serif" font-size="14.00">module.backend.data.aws_ami.ubuntu</text>
</g>
<!-- [root] module.backend.aws_instance.instance (expand)&#45;&gt;[root] module.backend.data.aws_ami.ubuntu (expand) -->
<g id="edge8" class="edge"><title>[root] module.backend.aws_instance.instance (expand)&#45;&gt;[root] module.backend.data.aws_ami.ubuntu (expand)</title>
<path fill="none" stroke="black" d="M833.376,-287.966C792.689,-277.866 740.972,-265.028 698.643,-254.521"/>
<polygon fill="black" stroke="black" points="699.481,-251.123 688.932,-252.111 697.794,-257.917 699.481,-251.123"/>
</g>
<!-- [root] module.backend.data.aws_availability_zones.available (expand) -->
<g id="node5" class="node"><title>[root] module.backend.data.aws_availability_zones.available (expand)</title>
<polygon fill="none" stroke="black" points="1061.25,-252 750.75,-252 750.75,-216 1061.25,-216 1061.25,-252"/>
<text text-anchor="middle" x="906" y="-230.3" font-family="Times,serif" font-size="14.00">module.backend.data.aws_availability_zones.available</text>
</g>
<!-- [root] module.backend.aws_instance.instance (expand)&#45;&gt;[root] module.backend.data.aws_availability_zones.available (expand) -->
<g id="edge9" class="edge"><title>[root] module.backend.aws_instance.instance (expand)&#45;&gt;[root] module.backend.data.aws_availability_zones.available (expand)</title>
<path fill="none" stroke="black" d="M902.989,-287.697C903.43,-279.983 903.959,-270.712 904.451,-262.112"/>
<polygon fill="black" stroke="black" points="907.946,-262.288 905.023,-252.104 900.958,-261.888 907.946,-262.288"/>
</g>
<!-- [root] module.backend.var.cmds (expand) -->
<g id="node19" class="node"><title>[root] module.backend.var.cmds (expand)</title>
<ellipse fill="none" stroke="black" cx="949" cy="-162" rx="159.354" ry="18"/>
<text text-anchor="middle" x="949" y="-158.3" font-family="Times,serif" font-size="14.00">[root] module.backend.var.cmds (expand)</text>
</g>
<!-- [root] module.backend.aws_instance.instance (expand)&#45;&gt;[root] module.backend.var.cmds (expand) -->
<g id="edge10" class="edge"><title>[root] module.backend.aws_instance.instance (expand)&#45;&gt;[root] module.backend.var.cmds (expand)</title>
<path fill="none" stroke="black" d="M1016.57,-290.074C1037.47,-282.052 1056.8,-270.006 1070,-252 1079.46,-239.096 1078.75,-229.392 1070,-216 1060.1,-200.856 1044.81,-190.013 1028.39,-182.257"/>
<polygon fill="black" stroke="black" points="1029.75,-179.031 1019.19,-178.259 1026.96,-185.452 1029.75,-179.031"/>
</g>
<!-- [root] module.backend.var.total_instances (expand) -->
<g id="node20" class="node"><title>[root] module.backend.var.total_instances (expand)</title>
<ellipse fill="none" stroke="black" cx="1136" cy="-90" rx="192.075" ry="18"/>
<text text-anchor="middle" x="1136" y="-86.3" font-family="Times,serif" font-size="14.00">[root] module.backend.var.total_instances (expand)</text>
</g>
<!-- [root] module.backend.aws_instance.instance (expand)&#45;&gt;[root] module.backend.var.total_instances (expand) -->
<g id="edge11" class="edge"><title>[root] module.backend.aws_instance.instance (expand)&#45;&gt;[root] module.backend.var.total_instances (expand)</title>
<path fill="none" stroke="black" d="M1016.55,-289.771C1042.38,-281.882 1068.03,-269.968 1088,-252 1126.12,-217.699 1134.52,-154.576 1136.04,-118.397"/>
<polygon fill="black" stroke="black" points="1139.55,-118.186 1136.32,-108.096 1132.55,-117.998 1139.55,-118.186"/>
</g>
<!-- [root] module.backend.provider[&quot;registry.terraform.io/hashicorp/aws&quot;] -->
<g id="node6" class="node"><title>[root] module.backend.provider[&quot;registry.terraform.io/hashicorp/aws&quot;]</title>
<polygon fill="none" stroke="black" points="435,-180 98.8826,-162 435,-144 771.117,-162 435,-180"/>
<text text-anchor="middle" x="435" y="-158.3" font-family="Times,serif" font-size="14.00">module.backend.provider[&quot;registry.terraform.io/hashicorp/aws&quot;]</text>
</g>
<!-- [root] module.backend.aws_key_pair.bubba (expand)&#45;&gt;[root] module.backend.provider[&quot;registry.terraform.io/hashicorp/aws&quot;] -->
<g id="edge12" class="edge"><title>[root] module.backend.aws_key_pair.bubba (expand)&#45;&gt;[root] module.backend.provider[&quot;registry.terraform.io/hashicorp/aws&quot;]</title>
<path fill="none" stroke="black" d="M188.332,-215.966C241.074,-204.641 309.851,-189.873 361.378,-178.808"/>
<polygon fill="black" stroke="black" points="362.402,-182.168 371.444,-176.647 360.932,-175.324 362.402,-182.168"/>
</g>
<!-- [root] module.backend.aws_security_group.nginx (expand)&#45;&gt;[root] module.backend.provider[&quot;registry.terraform.io/hashicorp/aws&quot;] -->
<g id="edge13" class="edge"><title>[root] module.backend.aws_security_group.nginx (expand)&#45;&gt;[root] module.backend.provider[&quot;registry.terraform.io/hashicorp/aws&quot;]</title>
<path fill="none" stroke="black" d="M380.798,-215.697C389.957,-206.792 401.249,-195.814 411.151,-186.187"/>
<polygon fill="black" stroke="black" points="413.664,-188.625 418.394,-179.145 408.784,-183.606 413.664,-188.625"/>
</g>
<!-- [root] module.backend.data.aws_ami.ubuntu (expand)&#45;&gt;[root] module.backend.provider[&quot;registry.terraform.io/hashicorp/aws&quot;] -->
<g id="edge14" class="edge"><title>[root] module.backend.data.aws_ami.ubuntu (expand)&#45;&gt;[root] module.backend.provider[&quot;registry.terraform.io/hashicorp/aws&quot;]</title>
<path fill="none" stroke="black" d="M574.744,-215.876C547.281,-205.485 512.224,-192.22 484.093,-181.576"/>
<polygon fill="black" stroke="black" points="485.047,-178.195 474.456,-177.929 482.57,-184.742 485.047,-178.195"/>
</g>
<!-- [root] module.backend.data.aws_availability_zones.available (expand)&#45;&gt;[root] module.backend.provider[&quot;registry.terraform.io/hashicorp/aws&quot;] -->
<g id="edge15" class="edge"><title>[root] module.backend.data.aws_availability_zones.available (expand)&#45;&gt;[root] module.backend.provider[&quot;registry.terraform.io/hashicorp/aws&quot;]</title>
<path fill="none" stroke="black" d="M791.383,-215.966C710.988,-204.017 604.807,-188.237 529.311,-177.017"/>
<polygon fill="black" stroke="black" points="529.739,-173.542 519.333,-175.534 528.71,-180.466 529.739,-173.542"/>
</g>
<!-- [root] module.backend.var.region (expand) -->
<g id="node22" class="node"><title>[root] module.backend.var.region (expand)</title>
<ellipse fill="none" stroke="black" cx="581" cy="-90" rx="162.228" ry="18"/>
<text text-anchor="middle" x="581" y="-86.3" font-family="Times,serif" font-size="14.00">[root] module.backend.var.region (expand)</text>
</g>
<!-- [root] module.backend.provider[&quot;registry.terraform.io/hashicorp/aws&quot;]&#45;&gt;[root] module.backend.var.region (expand) -->
<g id="edge18" class="edge"><title>[root] module.backend.provider[&quot;registry.terraform.io/hashicorp/aws&quot;]&#45;&gt;[root] module.backend.var.region (expand)</title>
<path fill="none" stroke="black" d="M467.04,-145.638C487.624,-135.769 514.631,-122.821 537.187,-112.006"/>
<polygon fill="black" stroke="black" points="538.725,-115.151 546.229,-107.671 535.698,-108.839 538.725,-115.151"/>
</g>
<!-- [root] module.frontend.aws_instance.instance (expand) -->
<g id="node7" class="node"><title>[root] module.frontend.aws_instance.instance (expand)</title>
<polygon fill="none" stroke="black" points="1922,-324 1692,-324 1692,-288 1922,-288 1922,-324"/>
<text text-anchor="middle" x="1807" y="-302.3" font-family="Times,serif" font-size="14.00">module.frontend.aws_instance.instance</text>
</g>
<!-- [root] module.frontend.aws_key_pair.bubba (expand) -->
<g id="node8" class="node"><title>[root] module.frontend.aws_key_pair.bubba (expand)</title>
<polygon fill="none" stroke="black" points="1388,-252 1168,-252 1168,-216 1388,-216 1388,-252"/>
<text text-anchor="middle" x="1278" y="-230.3" font-family="Times,serif" font-size="14.00">module.frontend.aws_key_pair.bubba</text>
</g>
<!-- [root] module.frontend.aws_instance.instance (expand)&#45;&gt;[root] module.frontend.aws_key_pair.bubba (expand) -->
<g id="edge23" class="edge"><title>[root] module.frontend.aws_instance.instance (expand)&#45;&gt;[root] module.frontend.aws_key_pair.bubba (expand)</title>
<path fill="none" stroke="black" d="M1691.63,-290.504C1612.01,-280.401 1503.42,-266.428 1398.36,-252.177"/>
<polygon fill="black" stroke="black" points="1398.59,-248.675 1388.21,-250.797 1397.65,-255.612 1398.59,-248.675"/>
</g>
<!-- [root] module.frontend.aws_security_group.nginx (expand) -->
<g id="node9" class="node"><title>[root] module.frontend.aws_security_group.nginx (expand)</title>
<polygon fill="none" stroke="black" points="1659.25,-252 1406.75,-252 1406.75,-216 1659.25,-216 1659.25,-252"/>
<text text-anchor="middle" x="1533" y="-230.3" font-family="Times,serif" font-size="14.00">module.frontend.aws_security_group.nginx</text>
</g>
<!-- [root] module.frontend.aws_instance.instance (expand)&#45;&gt;[root] module.frontend.aws_security_group.nginx (expand) -->
<g id="edge24" class="edge"><title>[root] module.frontend.aws_instance.instance (expand)&#45;&gt;[root] module.frontend.aws_security_group.nginx (expand)</title>
<path fill="none" stroke="black" d="M1740.32,-287.966C1700.87,-277.887 1650.75,-265.082 1609.67,-254.588"/>
<polygon fill="black" stroke="black" points="1610.53,-251.195 1599.98,-252.111 1608.8,-257.977 1610.53,-251.195"/>
</g>
<!-- [root] module.frontend.data.aws_ami.ubuntu (expand) -->
<g id="node10" class="node"><title>[root] module.frontend.data.aws_ami.ubuntu (expand)</title>
<polygon fill="none" stroke="black" points="1904,-252 1678,-252 1678,-216 1904,-216 1904,-252"/>
<text text-anchor="middle" x="1791" y="-230.3" font-family="Times,serif" font-size="14.00">module.frontend.data.aws_ami.ubuntu</text>
</g>
<!-- [root] module.frontend.aws_instance.instance (expand)&#45;&gt;[root] module.frontend.data.aws_ami.ubuntu (expand) -->
<g id="edge25" class="edge"><title>[root] module.frontend.aws_instance.instance (expand)&#45;&gt;[root] module.frontend.data.aws_ami.ubuntu (expand)</title>
<path fill="none" stroke="black" d="M1803.04,-287.697C1801.28,-279.983 1799.16,-270.712 1797.2,-262.112"/>
<polygon fill="black" stroke="black" points="1800.55,-261.073 1794.91,-252.104 1793.73,-262.633 1800.55,-261.073"/>
</g>
<!-- [root] module.frontend.data.aws_availability_zones.available (expand) -->
<g id="node11" class="node"><title>[root] module.frontend.data.aws_availability_zones.available (expand)</title>
<polygon fill="none" stroke="black" points="2233.25,-252 1922.75,-252 1922.75,-216 2233.25,-216 2233.25,-252"/>
<text text-anchor="middle" x="2078" y="-230.3" font-family="Times,serif" font-size="14.00">module.frontend.data.aws_availability_zones.available</text>
</g>
<!-- [root] module.frontend.aws_instance.instance (expand)&#45;&gt;[root] module.frontend.data.aws_availability_zones.available (expand) -->
<g id="edge26" class="edge"><title>[root] module.frontend.aws_instance.instance (expand)&#45;&gt;[root] module.frontend.data.aws_availability_zones.available (expand)</title>
<path fill="none" stroke="black" d="M1872.95,-287.966C1911.88,-277.909 1961.33,-265.136 2001.91,-254.654"/>
<polygon fill="black" stroke="black" points="2002.95,-258.001 2011.76,-252.111 2001.2,-251.223 2002.95,-258.001"/>
</g>
<!-- [root] module.frontend.var.cmds (expand) -->
<g id="node25" class="node"><title>[root] module.frontend.var.cmds (expand)</title>
<ellipse fill="none" stroke="black" cx="2187" cy="-162" rx="159.354" ry="18"/>
<text text-anchor="middle" x="2187" y="-158.3" font-family="Times,serif" font-size="14.00">[root] module.frontend.var.cmds (expand)</text>
</g>
<!-- [root] module.frontend.aws_instance.instance (expand)&#45;&gt;[root] module.frontend.var.cmds (expand) -->
<g id="edge27" class="edge"><title>[root] module.frontend.aws_instance.instance (expand)&#45;&gt;[root] module.frontend.var.cmds (expand)</title>
<path fill="none" stroke="black" d="M1922.18,-298.754C2043.84,-290.951 2221.04,-275.673 2242,-252 2259.8,-231.896 2238.7,-205.329 2217.69,-186.469"/>
<polygon fill="black" stroke="black" points="2219.89,-183.75 2210.03,-179.896 2215.34,-189.063 2219.89,-183.75"/>
</g>
<!-- [root] module.frontend.var.total_instances (expand) -->
<g id="node26" class="node"><title>[root] module.frontend.var.total_instances (expand)</title>
<ellipse fill="none" stroke="black" cx="2374" cy="-90" rx="192.075" ry="18"/>
<text text-anchor="middle" x="2374" y="-86.3" font-family="Times,serif" font-size="14.00">[root] module.frontend.var.total_instances (expand)</text>
</g>
<!-- [root] module.frontend.aws_instance.instance (expand)&#45;&gt;[root] module.frontend.var.total_instances (expand) -->
<g id="edge28" class="edge"><title>[root] module.frontend.aws_instance.instance (expand)&#45;&gt;[root] module.frontend.var.total_instances (expand)</title>
<path fill="none" stroke="black" d="M1922.1,-298.44C2035.66,-290.735 2200.64,-275.883 2260,-252 2309.15,-232.226 2326.58,-224.708 2355,-180 2366.76,-161.498 2371.36,-136.904 2373.1,-118.259"/>
<polygon fill="black" stroke="black" points="2376.6,-118.283 2373.82,-108.059 2369.62,-117.785 2376.6,-118.283"/>
</g>
<!-- [root] module.frontend.provider[&quot;registry.terraform.io/hashicorp/aws&quot;] -->
<g id="node12" class="node"><title>[root] module.frontend.provider[&quot;registry.terraform.io/hashicorp/aws&quot;]</title>
<polygon fill="none" stroke="black" points="1672,-180 1335,-162 1672,-144 2009,-162 1672,-180"/>
<text text-anchor="middle" x="1672" y="-158.3" font-family="Times,serif" font-size="14.00">module.frontend.provider[&quot;registry.terraform.io/hashicorp/aws&quot;]</text>
</g>
<!-- [root] module.frontend.aws_key_pair.bubba (expand)&#45;&gt;[root] module.frontend.provider[&quot;registry.terraform.io/hashicorp/aws&quot;] -->
<g id="edge29" class="edge"><title>[root] module.frontend.aws_key_pair.bubba (expand)&#45;&gt;[root] module.frontend.provider[&quot;registry.terraform.io/hashicorp/aws&quot;]</title>
<path fill="none" stroke="black" d="M1373.88,-215.966C1439.5,-204.307 1525.66,-188.999 1588.47,-177.84"/>
<polygon fill="black" stroke="black" points="1589.11,-181.282 1598.34,-176.086 1587.89,-174.389 1589.11,-181.282"/>
</g>
<!-- [root] module.frontend.aws_security_group.nginx (expand)&#45;&gt;[root] module.frontend.provider[&quot;registry.terraform.io/hashicorp/aws&quot;] -->
<g id="edge30" class="edge"><title>[root] module.frontend.aws_security_group.nginx (expand)&#45;&gt;[root] module.frontend.provider[&quot;registry.terraform.io/hashicorp/aws&quot;]</title>
<path fill="none" stroke="black" d="M1567,-215.876C1586.66,-205.978 1611.49,-193.472 1632.07,-183.108"/>
<polygon fill="black" stroke="black" points="1633.84,-186.138 1641.19,-178.514 1630.69,-179.886 1633.84,-186.138"/>
</g>
<!-- [root] module.frontend.data.aws_ami.ubuntu (expand)&#45;&gt;[root] module.frontend.provider[&quot;registry.terraform.io/hashicorp/aws&quot;] -->
<g id="edge31" class="edge"><title>[root] module.frontend.data.aws_ami.ubuntu (expand)&#45;&gt;[root] module.frontend.provider[&quot;registry.terraform.io/hashicorp/aws&quot;]</title>
<path fill="none" stroke="black" d="M1761.89,-215.876C1745.48,-206.225 1724.86,-194.096 1707.51,-183.889"/>
<polygon fill="black" stroke="black" points="1709.17,-180.804 1698.78,-178.75 1705.62,-186.837 1709.17,-180.804"/>
</g>
<!-- [root] module.frontend.data.aws_availability_zones.available (expand)&#45;&gt;[root] module.frontend.provider[&quot;registry.terraform.io/hashicorp/aws&quot;] -->
<g id="edge32" class="edge"><title>[root] module.frontend.data.aws_availability_zones.available (expand)&#45;&gt;[root] module.frontend.provider[&quot;registry.terraform.io/hashicorp/aws&quot;]</title>
<path fill="none" stroke="black" d="M1979.2,-215.966C1911.47,-204.288 1822.5,-188.949 1757.75,-177.785"/>
<polygon fill="black" stroke="black" points="1758.03,-174.281 1747.58,-176.031 1756.84,-181.179 1758.03,-174.281"/>
</g>
<!-- [root] module.frontend.var.region (expand) -->
<g id="node28" class="node"><title>[root] module.frontend.var.region (expand)</title>
<ellipse fill="none" stroke="black" cx="1818" cy="-90" rx="163.203" ry="18"/>
<text text-anchor="middle" x="1818" y="-86.3" font-family="Times,serif" font-size="14.00">[root] module.frontend.var.region (expand)</text>
</g>
<!-- [root] module.frontend.provider[&quot;registry.terraform.io/hashicorp/aws&quot;]&#45;&gt;[root] module.frontend.var.region (expand) -->
<g id="edge35" class="edge"><title>[root] module.frontend.provider[&quot;registry.terraform.io/hashicorp/aws&quot;]&#45;&gt;[root] module.frontend.var.region (expand)</title>
<path fill="none" stroke="black" d="M1704.04,-145.638C1724.62,-135.769 1751.63,-122.821 1774.19,-112.006"/>
<polygon fill="black" stroke="black" points="1775.72,-115.151 1783.23,-107.671 1772.7,-108.839 1775.72,-115.151"/>
</g>
<!-- [root] output.backend_ips -->
<g id="node13" class="node"><title>[root] output.backend_ips</title>
<polygon fill="none" stroke="black" points="1366,-468 1250,-468 1250,-432 1372,-432 1372,-462 1366,-468"/>
<polyline fill="none" stroke="black" points="1366,-468 1366,-462 "/>
<polyline fill="none" stroke="black" points="1372,-462 1366,-462 "/>
<text text-anchor="middle" x="1311" y="-446.3" font-family="Times,serif" font-size="14.00">output.backend_ips</text>
</g>
<!-- [root] module.backend.output.ips (expand) -->
<g id="node18" class="node"><title>[root] module.backend.output.ips (expand)</title>
<ellipse fill="none" stroke="black" cx="1304" cy="-378" rx="162.228" ry="18"/>
<text text-anchor="middle" x="1304" y="-374.3" font-family="Times,serif" font-size="14.00">[root] module.backend.output.ips (expand)</text>
</g>
<!-- [root] output.backend_ips&#45;&gt;[root] module.backend.output.ips (expand) -->
<g id="edge39" class="edge"><title>[root] output.backend_ips&#45;&gt;[root] module.backend.output.ips (expand)</title>
<path fill="none" stroke="black" d="M1309.27,-431.697C1308.5,-423.983 1307.57,-414.712 1306.71,-406.112"/>
<polygon fill="black" stroke="black" points="1310.19,-405.706 1305.71,-396.104 1303.22,-406.403 1310.19,-405.706"/>
</g>
<!-- [root] output.front_end_ips -->
<g id="node14" class="node"><title>[root] output.front_end_ips</title>
<polygon fill="none" stroke="black" points="1768,-468 1644,-468 1644,-432 1774,-432 1774,-462 1768,-468"/>
<polyline fill="none" stroke="black" points="1768,-468 1768,-462 "/>
<polyline fill="none" stroke="black" points="1774,-462 1768,-462 "/>
<text text-anchor="middle" x="1709" y="-446.3" font-family="Times,serif" font-size="14.00">output.front_end_ips</text>
</g>
<!-- [root] module.frontend.output.ips (expand) -->
<g id="node24" class="node"><title>[root] module.frontend.output.ips (expand)</title>
<ellipse fill="none" stroke="black" cx="1648" cy="-378" rx="163.203" ry="18"/>
<text text-anchor="middle" x="1648" y="-374.3" font-family="Times,serif" font-size="14.00">[root] module.frontend.output.ips (expand)</text>
</g>
<!-- [root] output.front_end_ips&#45;&gt;[root] module.frontend.output.ips (expand) -->
<g id="edge40" class="edge"><title>[root] output.front_end_ips&#45;&gt;[root] module.frontend.output.ips (expand)</title>
<path fill="none" stroke="black" d="M1693.92,-431.697C1686.61,-423.305 1677.69,-413.07 1669.66,-403.861"/>
<polygon fill="black" stroke="black" points="1672.11,-401.344 1662.91,-396.104 1666.84,-405.943 1672.11,-401.344"/>
</g>
<!-- [root] meta.count&#45;boundary (EachMode fixup) -->
<g id="node15" class="node"><title>[root] meta.count&#45;boundary (EachMode fixup)</title>
<ellipse fill="none" stroke="black" cx="1324" cy="-522" rx="176.202" ry="18"/>
<text text-anchor="middle" x="1324" y="-518.3" font-family="Times,serif" font-size="14.00">[root] meta.count&#45;boundary (EachMode fixup)</text>
</g>
<!-- [root] module.backend (close) -->
<g id="node16" class="node"><title>[root] module.backend (close)</title>
<ellipse fill="none" stroke="black" cx="1114" cy="-450" rx="117.459" ry="18"/>
<text text-anchor="middle" x="1114" y="-446.3" font-family="Times,serif" font-size="14.00">[root] module.backend (close)</text>
</g>
<!-- [root] meta.count&#45;boundary (EachMode fixup)&#45;&gt;[root] module.backend (close) -->
<g id="edge1" class="edge"><title>[root] meta.count&#45;boundary (EachMode fixup)&#45;&gt;[root] module.backend (close)</title>
<path fill="none" stroke="black" d="M1275.03,-504.676C1243.84,-494.279 1203.31,-480.771 1170.72,-469.907"/>
<polygon fill="black" stroke="black" points="1171.47,-466.469 1160.88,-466.627 1169.26,-473.11 1171.47,-466.469"/>
</g>
<!-- [root] module.frontend (close) -->
<g id="node17" class="node"><title>[root] module.frontend (close)</title>
<ellipse fill="none" stroke="black" cx="1508" cy="-450" rx="117.935" ry="18"/>
<text text-anchor="middle" x="1508" y="-446.3" font-family="Times,serif" font-size="14.00">[root] module.frontend (close)</text>
</g>
<!-- [root] meta.count&#45;boundary (EachMode fixup)&#45;&gt;[root] module.frontend (close) -->
<g id="edge2" class="edge"><title>[root] meta.count&#45;boundary (EachMode fixup)&#45;&gt;[root] module.frontend (close)</title>
<path fill="none" stroke="black" d="M1367.61,-504.411C1394.32,-494.248 1428.64,-481.191 1456.66,-470.53"/>
<polygon fill="black" stroke="black" points="1458.19,-473.695 1466.29,-466.868 1455.7,-467.153 1458.19,-473.695"/>
</g>
<!-- [root] meta.count&#45;boundary (EachMode fixup)&#45;&gt;[root] output.backend_ips -->
<g id="edge3" class="edge"><title>[root] meta.count&#45;boundary (EachMode fixup)&#45;&gt;[root] output.backend_ips</title>
<path fill="none" stroke="black" d="M1320.79,-503.697C1319.35,-495.983 1317.63,-486.712 1316.04,-478.112"/>
<polygon fill="black" stroke="black" points="1319.44,-477.297 1314.18,-468.104 1312.56,-478.575 1319.44,-477.297"/>
</g>
<!-- [root] meta.count&#45;boundary (EachMode fixup)&#45;&gt;[root] output.front_end_ips -->
<g id="edge4" class="edge"><title>[root] meta.count&#45;boundary (EachMode fixup)&#45;&gt;[root] output.front_end_ips</title>
<path fill="none" stroke="black" d="M1416.45,-506.661C1475.9,-497.107 1555.02,-483.776 1633.6,-468.227"/>
<polygon fill="black" stroke="black" points="1634.55,-471.606 1643.67,-466.22 1633.18,-464.741 1634.55,-471.606"/>
</g>
<!-- [root] module.backend (close)&#45;&gt;[root] module.backend.output.ips (expand) -->
<g id="edge5" class="edge"><title>[root] module.backend (close)&#45;&gt;[root] module.backend.output.ips (expand)</title>
<path fill="none" stroke="black" d="M1157.11,-433.116C1184.56,-423.005 1220.34,-409.823 1249.71,-399.001"/>
<polygon fill="black" stroke="black" points="1251.23,-402.17 1259.41,-395.429 1248.81,-395.602 1251.23,-402.17"/>
</g>
<!-- [root] module.frontend (close)&#45;&gt;[root] module.frontend.output.ips (expand) -->
<g id="edge22" class="edge"><title>[root] module.frontend (close)&#45;&gt;[root] module.frontend.output.ips (expand)</title>
<path fill="none" stroke="black" d="M1540.82,-432.588C1560.03,-422.986 1584.49,-410.755 1605.19,-400.403"/>
<polygon fill="black" stroke="black" points="1607.03,-403.398 1614.41,-395.795 1603.9,-397.137 1607.03,-403.398"/>
</g>
<!-- [root] module.backend.output.ips (expand)&#45;&gt;[root] module.backend.aws_instance.instance (expand) -->
<g id="edge16" class="edge"><title>[root] module.backend.output.ips (expand)&#45;&gt;[root] module.backend.aws_instance.instance (expand)</title>
<path fill="none" stroke="black" d="M1220.71,-362.496C1159.57,-351.85 1075.99,-337.297 1009.76,-325.765"/>
<polygon fill="black" stroke="black" points="1010.16,-322.281 999.708,-324.014 1008.96,-329.177 1010.16,-322.281"/>
</g>
<!-- [root] module.backend (expand) -->
<g id="node23" class="node"><title>[root] module.backend (expand)</title>
<ellipse fill="none" stroke="black" cx="916" cy="-18" rx="124.184" ry="18"/>
<text text-anchor="middle" x="916" y="-14.3" font-family="Times,serif" font-size="14.00">[root] module.backend (expand)</text>
</g>
<!-- [root] module.backend.var.cmds (expand)&#45;&gt;[root] module.backend (expand) -->
<g id="edge19" class="edge"><title>[root] module.backend.var.cmds (expand)&#45;&gt;[root] module.backend (expand)</title>
<path fill="none" stroke="black" d="M944.251,-143.867C941.438,-133.513 937.872,-120.034 935,-108 930.079,-87.383 925.098,-63.9328 921.471,-46.2809"/>
<polygon fill="black" stroke="black" points="924.826,-45.2166 919.4,-36.1166 917.967,-46.614 924.826,-45.2166"/>
</g>
<!-- [root] module.backend.var.total_instances (expand)&#45;&gt;[root] module.backend (expand) -->
<g id="edge21" class="edge"><title>[root] module.backend.var.total_instances (expand)&#45;&gt;[root] module.backend (expand)</title>
<path fill="none" stroke="black" d="M1084.42,-72.5881C1051.59,-62.1428 1008.98,-48.5858 974.838,-37.7213"/>
<polygon fill="black" stroke="black" points="975.582,-34.2851 964.992,-34.5882 973.46,-40.9556 975.582,-34.2851"/>
</g>
<!-- [root] module.backend.provider[&quot;registry.terraform.io/hashicorp/aws&quot;] (close) -->
<g id="node21" class="node"><title>[root] module.backend.provider[&quot;registry.terraform.io/hashicorp/aws&quot;] (close)</title>
<ellipse fill="none" stroke="black" cx="838" cy="-378" rx="285.462" ry="18"/>
<text text-anchor="middle" x="838" y="-374.3" font-family="Times,serif" font-size="14.00">[root] module.backend.provider[&quot;registry.terraform.io/hashicorp/aws&quot;] (close)</text>
</g>
<!-- [root] module.backend.provider[&quot;registry.terraform.io/hashicorp/aws&quot;] (close)&#45;&gt;[root] module.backend.aws_instance.instance (expand) -->
<g id="edge17" class="edge"><title>[root] module.backend.provider[&quot;registry.terraform.io/hashicorp/aws&quot;] (close)&#45;&gt;[root] module.backend.aws_instance.instance (expand)</title>
<path fill="none" stroke="black" d="M853.82,-359.697C861.57,-351.22 871.039,-340.864 879.524,-331.583"/>
<polygon fill="black" stroke="black" points="882.197,-333.846 886.362,-324.104 877.031,-329.123 882.197,-333.846"/>
</g>
<!-- [root] module.backend.var.region (expand)&#45;&gt;[root] module.backend (expand) -->
<g id="edge20" class="edge"><title>[root] module.backend.var.region (expand)&#45;&gt;[root] module.backend (expand)</title>
<path fill="none" stroke="black" d="M653.69,-73.811C708.241,-62.4123 782.797,-46.8335 838.483,-35.1976"/>
<polygon fill="black" stroke="black" points="839.228,-38.6176 848.301,-33.1461 837.796,-31.7656 839.228,-38.6176"/>
</g>
<!-- [root] module.frontend.output.ips (expand)&#45;&gt;[root] module.frontend.aws_instance.instance (expand) -->
<g id="edge33" class="edge"><title>[root] module.frontend.output.ips (expand)&#45;&gt;[root] module.frontend.aws_instance.instance (expand)</title>
<path fill="none" stroke="black" d="M1685.68,-360.411C1707.55,-350.781 1735.33,-338.552 1758.79,-328.226"/>
<polygon fill="black" stroke="black" points="1760.47,-331.311 1768.21,-324.078 1757.64,-324.905 1760.47,-331.311"/>
</g>
<!-- [root] module.frontend (expand) -->
<g id="node29" class="node"><title>[root] module.frontend (expand)</title>
<ellipse fill="none" stroke="black" cx="2154" cy="-18" rx="125.158" ry="18"/>
<text text-anchor="middle" x="2154" y="-14.3" font-family="Times,serif" font-size="14.00">[root] module.frontend (expand)</text>
</g>
<!-- [root] module.frontend.var.cmds (expand)&#45;&gt;[root] module.frontend (expand) -->
<g id="edge36" class="edge"><title>[root] module.frontend.var.cmds (expand)&#45;&gt;[root] module.frontend (expand)</title>
<path fill="none" stroke="black" d="M2182.25,-143.867C2179.44,-133.513 2175.87,-120.034 2173,-108 2168.08,-87.383 2163.1,-63.9328 2159.47,-46.2809"/>
<polygon fill="black" stroke="black" points="2162.83,-45.2166 2157.4,-36.1166 2155.97,-46.614 2162.83,-45.2166"/>
</g>
<!-- [root] module.frontend.var.total_instances (expand)&#45;&gt;[root] module.frontend (expand) -->
<g id="edge38" class="edge"><title>[root] module.frontend.var.total_instances (expand)&#45;&gt;[root] module.frontend (expand)</title>
<path fill="none" stroke="black" d="M2322.42,-72.5881C2289.59,-62.1428 2246.98,-48.5858 2212.84,-37.7213"/>
<polygon fill="black" stroke="black" points="2213.58,-34.2851 2202.99,-34.5882 2211.46,-40.9556 2213.58,-34.2851"/>
</g>
<!-- [root] module.frontend.provider[&quot;registry.terraform.io/hashicorp/aws&quot;] (close) -->
<g id="node27" class="node"><title>[root] module.frontend.provider[&quot;registry.terraform.io/hashicorp/aws&quot;] (close)</title>
<ellipse fill="none" stroke="black" cx="1832" cy="-522" rx="286.437" ry="18"/>
<text text-anchor="middle" x="1832" y="-518.3" font-family="Times,serif" font-size="14.00">[root] module.frontend.provider[&quot;registry.terraform.io/hashicorp/aws&quot;] (close)</text>
</g>
<!-- [root] module.frontend.provider[&quot;registry.terraform.io/hashicorp/aws&quot;] (close)&#45;&gt;[root] module.frontend.aws_instance.instance (expand) -->
<g id="edge34" class="edge"><title>[root] module.frontend.provider[&quot;registry.terraform.io/hashicorp/aws&quot;] (close)&#45;&gt;[root] module.frontend.aws_instance.instance (expand)</title>
<path fill="none" stroke="black" d="M1831.66,-503.972C1830.86,-474.476 1828.26,-412.042 1820,-360 1818.64,-351.447 1816.6,-342.245 1814.53,-333.948"/>
<polygon fill="black" stroke="black" points="1817.85,-332.832 1811.94,-324.039 1811.08,-334.598 1817.85,-332.832"/>
</g>
<!-- [root] module.frontend.var.region (expand)&#45;&gt;[root] module.frontend (expand) -->
<g id="edge37" class="edge"><title>[root] module.frontend.var.region (expand)&#45;&gt;[root] module.frontend (expand)</title>
<path fill="none" stroke="black" d="M1890.91,-73.811C1945.62,-62.4123 2020.4,-46.8335 2076.25,-35.1976"/>
<polygon fill="black" stroke="black" points="2077.02,-38.6122 2086.1,-33.1461 2075.59,-31.7593 2077.02,-38.6122"/>
</g>
<!-- [root] root -->
<g id="node30" class="node"><title>[root] root</title>
<ellipse fill="none" stroke="black" cx="1324" cy="-594" rx="47.169" ry="18"/>
<text text-anchor="middle" x="1324" y="-590.3" font-family="Times,serif" font-size="14.00">[root] root</text>
</g>
<!-- [root] root&#45;&gt;[root] meta.count&#45;boundary (EachMode fixup) -->
<g id="edge41" class="edge"><title>[root] root&#45;&gt;[root] meta.count&#45;boundary (EachMode fixup)</title>
<path fill="none" stroke="black" d="M1324,-575.697C1324,-567.983 1324,-558.712 1324,-550.112"/>
<polygon fill="black" stroke="black" points="1327.5,-550.104 1324,-540.104 1320.5,-550.104 1327.5,-550.104"/>
</g>
<!-- [root] root&#45;&gt;[root] module.backend.provider[&quot;registry.terraform.io/hashicorp/aws&quot;] (close) -->
<g id="edge42" class="edge"><title>[root] root&#45;&gt;[root] module.backend.provider[&quot;registry.terraform.io/hashicorp/aws&quot;] (close)</title>
<path fill="none" stroke="black" d="M1284.78,-583.747C1246.91,-574.352 1188.23,-558.571 1139,-540 1069.06,-513.619 1052.94,-503.207 987,-468 947.375,-446.844 903.372,-420.146 873.527,-401.536"/>
<polygon fill="black" stroke="black" points="875.073,-398.374 864.74,-396.035 871.359,-404.308 875.073,-398.374"/>
</g>
<!-- [root] root&#45;&gt;[root] module.frontend.provider[&quot;registry.terraform.io/hashicorp/aws&quot;] (close) -->
<g id="edge43" class="edge"><title>[root] root&#45;&gt;[root] module.frontend.provider[&quot;registry.terraform.io/hashicorp/aws&quot;] (close)</title>
<path fill="none" stroke="black" d="M1367.75,-586.971C1442.78,-576.632 1598.57,-555.165 1708.95,-539.955"/>
<polygon fill="black" stroke="black" points="1709.72,-543.382 1719.15,-538.55 1708.77,-536.448 1709.72,-543.382"/>
</g>
</g>
</svg>
